<?xml version="1.0" encoding="UTF-8"?>
<!DOCTYPE svg PUBLIC "-//W3C//DTD SVG 1.1//EN" "http://www.w3.org/Graphics/SVG/1.1/DTD/svg11.dtd">
<!-- Creator: CorelDRAW -->
<svg xmlns="http://www.w3.org/2000/svg" xml:space="preserve" width="86.8054mm" height="28.7977mm" version="1.1" style="shape-rendering:geometricPrecision; text-rendering:geometricPrecision; image-rendering:optimizeQuality; fill-rule:evenodd; clip-rule:evenodd"
viewBox="0 0 8666.28 2875.04"
 xmlns:xlink="http://www.w3.org/1999/xlink"
 xmlns:xodm="http://www.corel.com/coreldraw/odm/2003">
 <defs>
  <style type="text/css">
   <![CDATA[
    .fil1 {fill:black;fill-rule:nonzero}
    .fil0 {fill:#FFCC00;fill-rule:nonzero}
   ]]>
  </style>
 </defs>
 <g id="Layer_x0020_1">
  <metadata id="CorelCorpID_0Corel-Layer"/>
  <g id="_105553649169280">
   <g>
    <path class="fil0" d="M6531.71 2214.48c295.61,-879.74 794.93,-555.56 1388.99,-714.11 98.12,-26.2 186.31,-51.5 292.74,-20.27 -240.45,-188.62 -1286.67,186.5 -1681.72,-219.96l886.61 0c197.35,9.23 666.42,32.15 814.2,178.55 -244.61,-375.4 -1770.7,-85.35 -1699.14,-900.77 75.38,279.99 328.35,352.95 583.52,405.82 392.21,81.26 863.28,61.46 1094.39,378.82 -263.14,-576.58 -1814.52,-480.31 -1670.1,-1322.56 172.76,678.03 1406.62,645.13 1692.43,1107.65 -13.04,-60.21 -57.42,-167.38 -79.05,-188.65 72.55,-97.29 201.93,-153.29 323.1,-132.62 -135.95,-69.99 -228.4,-139.84 -225.33,-303.24 0.35,-20.09 1.94,-40.4 2.99,-60.5 47.64,176.51 130.46,225.25 268.84,338.63 -24.94,-61.94 -43.74,-113.71 -22.1,-175.54 4.82,-13.83 11.46,-28.33 17.05,-41.79 -1.15,65.33 0.08,96.62 32.01,155.05 49.1,89.89 123.92,131.72 114.33,358.6 -186.78,-233.28 -258.39,-61.83 -261.75,85.18 -2.43,107.43 66.43,218.82 80.24,336.54 14.16,120.76 -13,248.23 -62.1,358.96 -67.71,152.73 -193.69,247.42 -323.37,390.9 -149.28,165.17 -328.77,409.99 -305.25,645.88 -354.92,-376.8 65.24,-587.25 359.46,-780.02 119.18,-78.08 203.5,-164.56 241.26,-308.19 33,-125.55 -18.79,-219.99 -51.75,-264.31 -4.98,54.13 -18.26,108.51 -41.27,162.76 -164.1,387.03 -754.34,588.12 -1072.63,1189.75 -140.95,-806.53 715.93,-771.47 995.7,-1287.81 -277.58,325.59 -807.91,447.46 -1243.2,728.81 -182.31,117.84 -367.97,299.78 -434.56,511.34 -6.01,19.12 -14.93,47.66 -15.27,47.66 16.18,-924.95 1049.44,-956.93 1682.74,-1371.49 -89.4,-15.95 -173.35,36.3 -251.19,71.29 -511.68,230.04 -1001.4,90.36 -1430.8,639.64z"/>
    <path class="fil1" d="M7923.12 2742.98c11.08,0 21.89,2.84 32.47,8.54 10.53,5.68 18.78,13.83 24.66,24.4 5.89,10.6 8.85,21.65 8.85,33.13 0,11.37 -2.9,22.33 -8.73,32.82 -5.79,10.51 -13.92,18.67 -24.4,24.46 -10.48,5.82 -21.43,8.72 -32.85,8.72 -11.44,0 -22.4,-2.9 -32.89,-8.72 -10.48,-5.79 -18.63,-13.95 -24.46,-24.46 -5.82,-10.48 -8.75,-21.44 -8.75,-32.82 0,-11.47 2.96,-22.52 8.88,-33.13 5.94,-10.57 14.18,-18.72 24.72,-24.4 10.57,-5.7 21.38,-8.54 32.5,-8.54zm0 10.93c-9.28,0 -18.34,2.39 -27.12,7.14 -8.79,4.74 -15.65,11.55 -20.61,20.4 -4.96,8.84 -7.44,18.03 -7.44,27.59 0,9.52 2.45,18.63 7.32,27.35 4.86,8.72 11.67,15.52 20.43,20.4 8.75,4.86 17.89,7.32 27.41,7.32 9.49,0 18.63,-2.46 27.38,-7.32 8.75,-4.87 15.56,-11.68 20.4,-20.4 4.84,-8.73 7.26,-17.83 7.26,-27.35 0,-9.56 -2.48,-18.76 -7.41,-27.59 -4.92,-8.85 -11.79,-15.65 -20.61,-20.4 -8.81,-4.75 -17.83,-7.14 -27.03,-7.14zm21.18 65.76l10.75 3.22c-1.77,7.28 -5.47,13.14 -11.14,17.47 -5.7,4.35 -12.6,6.54 -20.7,6.54 -10.27,0 -18.61,-3.31 -25.03,-9.98 -6.42,-6.66 -9.61,-15.85 -9.61,-27.65 0,-7.7 1.47,-14.39 4.39,-20.07 2.9,-5.7 7.08,-9.97 12.45,-12.87 5.4,-2.9 11.59,-4.33 18.52,-4.33 7.77,0 14.22,1.86 19.35,5.59 5.14,3.73 8.64,8.81 10.51,15.2l-10.39 2.7c-1.76,-4.39 -4.33,-7.77 -7.77,-10.1 -3.43,-2.36 -7.43,-3.52 -12.06,-3.52 -6.72,0 -12.28,2.4 -16.64,7.17 -4.35,4.78 -6.54,11.65 -6.54,20.55 0,8.94 2.07,15.68 6.19,20.26 4.11,4.56 9.43,6.87 15.97,6.87 5.26,0 9.88,-1.53 13.86,-4.6 3.97,-3.04 6.6,-7.2 7.89,-12.42z"/>
   </g>
   <g>
    <polygon class="fil1" points="207.5,1884.35 207.5,1245.85 95.78,1086.23 31.93,1086.23 31.93,1884.35 "/>
    <path class="fil1" d="M1075.57 1884.35l0 -1035.96 -111.74 -159.63 -63.83 0 0 399.06c0,67.04 -6.39,146.87 -23.95,226.41 -19.15,-71.57 -86.19,-242.37 -274.55,-242.37 -228.25,0 -354.37,253.53 -354.37,479.67 0,182.76 83.01,348.79 260.19,348.79 226.65,0 343.19,-271.11 392.67,-517.73l0 501.75 175.57 0zm-223.46 -484.18c-54.28,168.66 -164.42,316.58 -359.15,316.58 -143.66,0 -205.91,-76.35 -205.91,-168.67 0,-131.95 130.87,-292.64 332,-292.64 159.63,0 215.49,95.51 233.06,144.73l0 0z"/>
    <path class="fil1" d="M1687.34 1565.64c-62.26,89.11 -191.55,151.1 -340,151.1 -71.83,0 -126.1,-14.1 -162.81,-38.04l558.67 -332.55c0,0 -39.89,-274.29 -296.9,-274.29 -245.81,0 -371.91,253.53 -371.91,479.41 0,183.02 83,349.05 260.19,349.05 170.79,0 327.21,-153.24 392.66,-334.68l-39.9 0zm-531.55 90.72c-28.73,-28.73 -41.49,-66.78 -41.49,-108.29 0,-131.95 134.08,-292.64 360.73,-292.64 111.75,0 159.63,39.64 183.58,74.75l-502.81 326.18z"/>
    <path class="fil1" d="M2524.46 1086.23c-19.16,-4.79 -36.71,-6.38 -52.68,-6.38 -98.96,0 -146.84,73.44 -159.63,197.94 -22.34,212.28 -100.56,438.96 -336.8,438.96 -132.49,0 -186.75,-54.28 -186.75,-142.07 0,-121.31 106.93,-306.48 250.6,-488.46l-218.68 0c-52.67,92.58 -84.59,236.24 -84.59,376.72 0,180.51 51.84,354.72 171.08,415.16 27.67,13.56 64.94,22.21 95.48,22.21 185.16,0 276.15,-210.7 317.66,-429.39 12.42,68.58 36.63,128.1 56.32,184.61 160.69,461.07 -313.71,435.89 -579.3,276.86l0 215.53c62.08,30.2 154.05,60.68 272.44,60.68 226,0 358.12,-110.94 387.83,-275.31 19.52,-107.96 -2.77,-193.04 -42.25,-293.45 -34.09,-86.62 -66.31,-170.17 -66.31,-255.13 0,-103.74 59.04,-126.08 108.53,-126.08 36.73,0 67.05,11.16 67.05,11.16l0 -183.57z"/>
    <path class="fil1" d="M2644.17 1884.35l175.58 0 0 -758.21 322.78 0 0 -39.91 -306.82 0c0,0 -111.75,-33.51 -111.75,-175.57 0,-130.89 87.81,-205.91 162.82,-205.91 54.27,0 100.55,39.9 100.55,126.1l0 63.83 156.43 -43.1c0,-140.45 -121.3,-185.16 -244.23,-185.16 -158.02,0 -335.21,83.01 -335.21,234.64 0,156.43 217.09,185.16 217.09,185.16l-259.6 0 0 39.91 122.34 0 0 758.21z"/>
    <path class="fil1" d="M3307.32 1071.87c-272.95,0 -430.97,259.92 -430.97,488.99 0,179.84 97.37,339.47 311.26,339.47 272.95,0 430.98,-259.93 430.98,-489 0,-179.83 -97.38,-339.46 -311.27,-339.46zm-135.68 644.88c-173.98,0 -252.21,-77.95 -252.21,-171.86 0,-130.36 154.85,-289.45 403.86,-289.45 173.97,0 252.2,77.95 252.2,171.87 0,130.35 -154.84,289.44 -403.85,289.44z"/>
    <path class="fil1" d="M4238.95 1116.56c-35.1,-28.73 -79.81,-44.7 -130.87,-44.7 -186.76,0 -276.17,213.64 -316.05,434.97l0 -259.38 -111.75 -159.63 -63.85 0 0 796.52 175.6 0c0,-234.11 31.92,-628.92 343.18,-628.92 46.28,0 78.22,8 103.75,22.07l0 -160.95z"/>
    <path class="fil1" d="M5353.01 1071.87c-272.95,0 -430.98,259.92 -430.98,488.99 0,179.84 97.38,339.47 311.27,339.47 272.95,0 430.98,-259.93 430.98,-489 0,-179.83 -97.38,-339.46 -311.27,-339.46zm-135.68 644.88c-173.98,0 -252.21,-77.95 -252.21,-171.86 0,-130.36 154.85,-289.45 403.86,-289.45 173.97,0 252.2,77.95 252.2,171.87 0,130.35 -154.84,289.44 -403.85,289.44z"/>
    <path class="fil1" d="M6244.26 1086.22c0,234.66 -31.92,630.52 -343.19,630.52 -134.08,0 -188.36,-55.86 -188.36,-143.65 0,-124.51 111.74,-312.87 252.2,-486.87l-218.68 0c-52.67,92.59 -84.59,236.25 -84.59,376.73 0,221.88 78.2,437.37 266.56,437.37 186.76,0 276.15,-213.91 316.06,-435.77l0 419.8 175.59 0 0 -798.13 -175.59 0z"/>
    <path class="fil1" d="M5008.78 1086.23c-19.16,-4.79 -36.71,-6.38 -52.68,-6.38 -98.96,0 -146.84,73.44 -159.63,197.94 -22.34,212.28 -100.55,438.96 -336.79,438.96 -132.5,0 -186.76,-54.28 -186.76,-142.07 0,-121.31 106.93,-306.48 250.6,-488.46l-218.67 0c-52.68,92.58 -84.6,236.24 -84.6,376.72 0,180.51 51.84,354.72 171.08,415.16 27.67,13.56 64.94,22.21 95.48,22.21 185.16,0 276.15,-210.7 317.66,-429.39 12.42,68.58 36.63,128.1 56.33,184.61 160.69,461.07 -313.72,435.89 -579.31,276.86l0 215.53c62.08,30.2 154.05,60.68 272.44,60.68 226,0 358.12,-110.94 387.84,-275.31 19.51,-107.96 -2.78,-193.04 -42.26,-293.45 -34.08,-86.62 -66.31,-170.17 -66.31,-255.13 0,-103.74 59.04,-126.08 108.54,-126.08 36.72,0 67.04,11.16 67.04,11.16l0 -183.57z"/>
    <polygon class="fil1" points="119.71,688.77 -0,808.48 119.71,928.19 239.43,808.48 "/>
   </g>
   <path class="fil1" d="M906.29 2579.23l0 -188.95 31.96 0 0 76.08 88.85 0 0 -76.08 31.97 0 0 192.66 -31.97 0 0 -87.3 -88.85 0 0 87.3 -31.96 0 0 -3.71zm290.59 0l0 -188.95 141.35 0 0 29.28 -109.43 0 0 49.3 102.49 0 0 29.15 -102.49 0 0 55.65 113.75 0 0 29.28 -145.67 0 0 -3.71zm276.4 0l0 -188.95 85.83 0c8.27,0 15.7,0.46 22.26,1.32 6.58,0.84 12.2,2.21 16.72,3.94 9.33,3.62 16.85,10.01 22.45,19.12 2.75,4.54 4.82,9.32 6.16,14.29 1.37,5.01 2.08,10.21 2.08,15.57 0,7.03 -1.17,13.57 -3.43,19.5 -2.27,5.95 -5.77,11.42 -10.35,16.26 -4.57,4.84 -10.42,8.85 -17.46,11.9 -4.13,1.81 -8.75,3.31 -13.75,4.51 2.51,1.57 4.63,3.18 6.37,4.73 3.68,3.42 7.34,7.28 10.81,11.49 3.46,4.19 6.86,8.87 10.14,13.86l35.89 56.17 -39.59 0 -25.6 -40.26 -9.74 -14.59 -7.78 -10.61 -6.29 -7.21c-1.87,-1.87 -3.64,-3.35 -5.22,-4.35l-5.02 -2.75 -5.05 -1.75 -4.89 -0.54 -32.61 -0.19 0 82.24 -31.93 0 0 -3.71zm31.93 -107.18l49 0c5.58,0 10.44,-0.27 14.51,-0.82 4.06,-0.5 7.59,-1.37 10.48,-2.41 2.81,-1.03 5.28,-2.4 7.38,-4 2.06,-1.58 3.81,-3.5 5.19,-5.66 1.43,-2.21 2.54,-4.59 3.25,-7.03 0.69,-2.39 1.07,-4.94 1.07,-7.61 0,-3.89 -0.71,-7.42 -2.04,-10.47 -1.34,-3.06 -3.45,-5.89 -6.24,-8.37 -2.73,-2.44 -6.38,-4.3 -10.82,-5.53 -4.65,-1.31 -10.31,-1.98 -16.87,-1.98l-54.91 0 0 53.87zm259.02 107.18l0 -188.95 141.36 0 0 29.28 -109.44 0 0 49.3 102.5 0 0 29.15 -102.5 0 0 55.65 113.75 0 0 29.28 -145.67 0 0 -3.71zm390.4 0l0 -159.67 -61.03 0 0 -29.28 154.25 0 0 29.28 -61.29 0 0 163.38 -31.93 0 0 -3.71zm202.76 -90.23c0,-15.73 2.14,-29.86 6.39,-42.29 4.29,-12.52 10.77,-23.37 19.39,-32.45 8.62,-9.06 18.55,-15.91 29.7,-20.46 11.11,-4.53 23.45,-6.82 36.95,-6.82 8.79,0 17.27,1.09 25.3,3.2 8.07,2.15 15.72,5.37 22.83,9.58 7.17,4.31 13.52,9.45 18.97,15.38 5.44,5.93 10.09,12.74 13.85,20.35 3.69,7.55 6.54,15.66 8.37,24.21 1.87,8.6 2.81,17.69 2.81,27.13 0,9.6 -0.98,18.84 -2.94,27.56 -1.95,8.7 -4.9,16.93 -8.83,24.56 -3.93,7.7 -8.76,14.55 -14.36,20.4 -5.61,5.87 -12.11,10.84 -19.37,14.83 -7.29,3.95 -14.82,6.96 -22.57,8.93 -7.8,1.97 -15.9,2.98 -24.18,2.98 -9,0 -17.61,-1.11 -25.77,-3.29 -8.11,-2.18 -15.78,-5.51 -22.92,-9.91 -7.18,-4.35 -13.51,-9.59 -18.93,-15.59 -5.45,-6.03 -10.06,-12.85 -13.71,-20.44 -3.63,-7.48 -6.4,-15.27 -8.22,-23.26 -1.85,-7.99 -2.77,-16.24 -2.77,-24.59zm32.7 0.4c0,21.33 5.68,38.11 16.97,50.23 5.64,6.03 12.03,10.58 19.06,13.58 7,2.98 14.86,4.5 23.43,4.5 8.74,0 16.7,-1.53 23.79,-4.54 7.08,-3.03 13.46,-7.61 19.03,-13.69 5.58,-6.08 9.81,-13.52 12.62,-22.2 2.85,-8.82 4.29,-19.01 4.29,-30.56 0,-7.31 -0.63,-14.17 -1.84,-20.44 -1.2,-6.24 -3.06,-12.13 -5.49,-17.52 -2.38,-5.28 -5.37,-10.01 -8.83,-14.09 -3.46,-4.06 -7.53,-7.56 -12.1,-10.45 -4.61,-2.88 -9.55,-5.09 -14.72,-6.54 -5.11,-1.45 -10.62,-2.19 -16.36,-2.19 -8.26,0 -15.91,1.41 -22.87,4.17 -7,2.82 -13.5,7.05 -19.41,12.71 -5.76,5.49 -10.16,12.95 -13.08,22.25 -2.98,9.53 -4.5,21.18 -4.5,34.77zm346.95 26.63l26.71 -2.38 0.4 3.62c0.48,4.34 1.36,8.37 2.54,11.89 1.15,3.45 2.66,6.56 4.48,9.26 1.74,2.62 4.04,5.05 6.86,7.19 2.89,2.25 6.3,4.23 10.18,5.91 3.89,1.68 8.13,3.02 12.6,3.85 4.46,0.86 9.28,1.3 14.36,1.3 8.93,0 16.74,-1.3 23.41,-3.87 3.26,-1.28 6.16,-2.81 8.58,-4.5 2.35,-1.68 4.29,-3.58 5.78,-5.62 1.51,-2.1 2.69,-4.34 3.43,-6.62 0.74,-2.21 1.12,-4.59 1.12,-7.11 0,-4.99 -1.45,-9.3 -4.3,-12.98 -1.43,-1.84 -3.37,-3.58 -5.78,-5.15 -2.52,-1.64 -5.66,-3.18 -9.26,-4.55l-11.68 -3.62 -20.88 -5.32c-8.7,-2.08 -16.05,-4.11 -21.96,-6.02 -6.14,-1.95 -11.09,-3.93 -14.68,-5.87 -4.6,-2.43 -8.74,-5.17 -12.19,-8.22 -3.61,-3.11 -6.63,-6.58 -8.98,-10.31 -4.69,-7.46 -7.07,-15.82 -7.07,-25.04 0,-5.01 0.74,-9.89 2.17,-14.62 1.4,-4.67 3.56,-9.26 6.39,-13.58 2.84,-4.34 6.39,-8.26 10.58,-11.61 4.15,-3.31 8.96,-6.1 14.34,-8.35 5.35,-2.18 11.01,-3.83 16.92,-4.92 5.93,-1.11 12.11,-1.68 18.48,-1.68 7.01,0 13.76,0.59 20.09,1.74 6.24,1.16 12.22,2.92 17.71,5.22 5.51,2.29 10.47,5.24 14.78,8.7 4.35,3.5 8.07,7.59 11.08,12.16 2.99,4.5 5.31,9.49 6.94,14.74 1.6,5.15 2.56,10.66 2.77,16.39l0.15 3.53 -30.62 2.29 -0.4 -3.54c-0.59,-5.4 -1.89,-10.18 -3.83,-14.23 -1.89,-3.92 -4.49,-7.24 -7.68,-9.83 -3.22,-2.66 -7.31,-4.69 -12.17,-6.03 -5.01,-1.39 -10.96,-2.1 -17.76,-2.1 -7.15,0 -13.29,0.67 -18.32,1.91 -4.88,1.21 -8.87,3.07 -11.84,5.42 -2.96,2.38 -5.15,4.99 -6.62,7.8 -1.41,2.71 -2.12,5.73 -2.12,8.96 0,2.87 0.5,5.45 1.47,7.65 0.96,2.25 2.49,4.27 4.46,6.04 2.01,1.82 5.91,3.77 11.61,5.8 5.97,2.12 13.9,4.32 23.73,6.52 9.84,2.25 18.36,4.4 25.38,6.42 7.07,2.03 12.53,3.93 16.32,5.63 5.73,2.69 10.71,5.68 14.87,8.98 4.23,3.35 7.78,7.13 10.56,11.23 2.81,4.17 4.92,8.66 6.27,13.36 1.38,4.75 2.08,9.82 2.08,15.07 0,5.28 -0.76,10.42 -2.27,15.42 -1.53,5.01 -3.81,9.87 -6.79,14.45 -3,4.63 -6.73,8.83 -11.05,12.45 -4.29,3.58 -9.28,6.71 -14.84,9.26 -5.51,2.5 -11.44,4.42 -17.65,5.68 -6.31,1.26 -12.83,1.91 -19.56,1.91 -8.57,0 -16.53,-0.65 -23.76,-1.89 -7.26,-1.26 -13.9,-3.18 -19.84,-5.76 -5.95,-2.54 -11.33,-5.81 -16.07,-9.72 -4.73,-3.9 -8.89,-8.48 -12.28,-13.67 -3.35,-5.14 -6,-10.73 -7.8,-16.68 -1.76,-5.87 -2.77,-12.12 -2.92,-18.58l-0.06 -3.47 3.43 -0.29zm406.71 -125.74l28.25 0 0 110.75c0,19 -2.22,34.27 -6.62,45.67 -2.27,5.85 -5.47,11.23 -9.49,15.95 -4.07,4.73 -9.02,8.95 -14.81,12.55 -5.86,3.65 -12.64,6.42 -20.16,8.22 -7.49,1.79 -15.87,2.67 -25.05,2.67 -8.85,0 -17.04,-0.8 -24.46,-2.35 -7.4,-1.55 -14.07,-3.94 -19.87,-7.09 -5.89,-3.18 -10.99,-7.13 -15.18,-11.73 -4.21,-4.61 -7.64,-10 -10.13,-16.08 -2.47,-5.91 -4.33,-12.97 -5.55,-20.96 -1.2,-7.99 -1.83,-16.96 -1.83,-26.86l0 -110.75 31.93 0 0 110.63c0,8.03 0.38,14.91 1.07,20.46 0.71,5.64 1.78,10.27 3.14,13.75 1.3,3.35 3.14,6.39 5.43,9.02 2.26,2.6 5.09,4.88 8.36,6.75 3.31,1.89 7.07,3.31 11.17,4.27 4.13,0.95 8.75,1.45 13.76,1.45 8.66,0 16.01,-0.99 22.02,-2.9 5.79,-1.84 10.44,-4.58 13.82,-8.22 3.37,-3.58 5.97,-9.06 7.73,-16.24 1.81,-7.48 2.75,-16.93 2.75,-28.33l0 -110.63 3.71 0zm165.57 188.95l0 -188.95 73.57 0c12.34,0 22.02,0.63 28.75,1.82 4.78,0.78 9.26,2 13.27,3.5 4.07,1.53 7.84,3.48 11.15,5.79 3.29,2.26 6.35,5.09 9.04,8.32 2.67,3.2 5.03,6.9 7.02,10.96 2,4.04 3.5,8.39 4.51,12.89 0.98,4.46 1.49,9.18 1.49,13.99 0,8.28 -1.37,16.01 -4,23.11 -2.67,7.11 -6.69,13.63 -11.99,19.41 -5.47,5.91 -13.1,10.4 -22.8,13.32 -9.43,2.83 -20.88,4.25 -34.27,4.25l-43.81 0 0 75.31 -31.92 0 0 -3.71zm31.92 -100.87l44.21 0c7.65,0 14.15,-0.7 19.39,-2.06 4.99,-1.3 9,-3.29 11.88,-5.85 2.9,-2.58 5.07,-5.68 6.5,-9.24 1.45,-3.64 2.21,-7.96 2.21,-12.89 0,-3.58 -0.44,-6.83 -1.28,-9.74 -0.87,-2.92 -2.19,-5.64 -3.88,-8.05 -1.7,-2.4 -3.68,-4.4 -5.91,-5.98 -2.2,-1.55 -4.73,-2.75 -7.53,-3.49 -1.8,-0.46 -4.54,-0.84 -8.19,-1.09l-13.72 -0.4 -43.68 0 0 58.79zm244.61 100.87l0 -188.95 73.57 0c12.35,0 22.03,0.63 28.76,1.82 4.77,0.78 9.25,2 13.26,3.5 4.07,1.53 7.85,3.48 11.15,5.79 3.29,2.26 6.36,5.09 9.04,8.32 2.67,3.2 5.03,6.9 7.03,10.96 1.99,4.04 3.49,8.39 4.5,12.89 0.99,4.46 1.49,9.18 1.49,13.99 0,8.28 -1.36,16.01 -4,23.11 -2.67,7.11 -6.69,13.63 -11.99,19.41 -5.47,5.91 -13.1,10.4 -22.8,13.32 -9.43,2.83 -20.88,4.25 -34.27,4.25l-43.81 0 0 75.31 -31.92 0 0 -3.71zm31.92 -100.87l44.21 0c7.65,0 14.15,-0.7 19.39,-2.06 4.99,-1.3 9,-3.29 11.89,-5.85 2.89,-2.58 5.07,-5.68 6.49,-9.24 1.45,-3.64 2.21,-7.96 2.21,-12.89 0,-3.58 -0.44,-6.83 -1.28,-9.74 -0.86,-2.92 -2.19,-5.64 -3.88,-8.05 -1.7,-2.4 -3.68,-4.4 -5.91,-5.98 -2.2,-1.55 -4.73,-2.75 -7.52,-3.49 -1.81,-0.46 -4.55,-0.84 -8.2,-1.09l-13.71 -0.4 -43.69 0 0 58.79zm237.15 10.64c0,-15.73 2.14,-29.86 6.39,-42.29 4.29,-12.52 10.77,-23.37 19.39,-32.45 8.62,-9.06 18.55,-15.91 29.7,-20.46 11.11,-4.53 23.45,-6.82 36.95,-6.82 8.79,0 17.27,1.09 25.3,3.2 8.08,2.15 15.72,5.37 22.83,9.58 7.17,4.31 13.52,9.45 18.97,15.38 5.45,5.93 10.1,12.74 13.85,20.35 3.69,7.55 6.55,15.66 8.37,24.21 1.87,8.6 2.82,17.69 2.82,27.13 0,9.6 -0.99,18.84 -2.94,27.56 -1.96,8.7 -4.91,16.93 -8.83,24.56 -3.94,7.7 -8.77,14.55 -14.36,20.4 -5.62,5.87 -12.12,10.84 -19.37,14.83 -7.3,3.95 -14.83,6.96 -22.57,8.93 -7.8,1.97 -15.91,2.98 -24.19,2.98 -9,0 -17.61,-1.11 -25.76,-3.29 -8.12,-2.18 -15.78,-5.51 -22.93,-9.91 -7.17,-4.35 -13.5,-9.59 -18.93,-15.59 -5.45,-6.03 -10.06,-12.85 -13.71,-20.44 -3.62,-7.48 -6.39,-15.27 -8.22,-23.26 -1.85,-7.99 -2.77,-16.24 -2.77,-24.59zm32.7 0.4c0,21.33 5.68,38.11 16.97,50.23 5.64,6.03 12.04,10.58 19.06,13.58 7,2.98 14.86,4.5 23.43,4.5 8.75,0 16.7,-1.53 23.79,-4.54 7.09,-3.03 13.46,-7.61 19.03,-13.69 5.58,-6.08 9.81,-13.52 12.62,-22.2 2.86,-8.82 4.3,-19.01 4.3,-30.56 0,-7.31 -0.63,-14.17 -1.85,-20.44 -1.2,-6.24 -3.06,-12.13 -5.49,-17.52 -2.38,-5.28 -5.37,-10.01 -8.83,-14.09 -3.46,-4.06 -7.53,-7.56 -12.1,-10.45 -4.6,-2.88 -9.55,-5.09 -14.71,-6.54 -5.12,-1.45 -10.63,-2.19 -16.37,-2.19 -8.26,0 -15.91,1.41 -22.87,4.17 -7,2.82 -13.5,7.05 -19.41,12.71 -5.76,5.49 -10.16,12.95 -13.08,22.25 -2.98,9.53 -4.5,21.18 -4.5,34.77zm280.36 89.83l0 -188.95 85.84 0c8.26,0 15.69,0.46 22.25,1.32 6.58,0.84 12.2,2.21 16.73,3.94 9.32,3.62 16.85,10.01 22.44,19.12 2.75,4.54 4.82,9.32 6.16,14.29 1.37,5.01 2.08,10.21 2.08,15.57 0,7.03 -1.17,13.57 -3.43,19.5 -2.27,5.95 -5.76,11.42 -10.35,16.26 -4.57,4.84 -10.42,8.85 -17.46,11.9 -4.13,1.81 -8.75,3.31 -13.75,4.51 2.52,1.57 4.63,3.18 6.37,4.73 3.68,3.42 7.34,7.28 10.81,11.49 3.46,4.19 6.86,8.87 10.14,13.86l35.89 56.17 -39.59 0 -25.6 -40.26 -9.74 -14.59 -7.78 -10.61 -6.29 -7.21c-1.87,-1.87 -3.64,-3.35 -5.21,-4.35l-5.03 -2.75 -5.05 -1.75 -4.88 -0.54 -32.62 -0.19 0 82.24 -31.93 0 0 -3.71zm31.93 -107.18l49 0c5.58,0 10.44,-0.27 14.51,-0.82 4.06,-0.5 7.59,-1.37 10.48,-2.41 2.81,-1.03 5.28,-2.4 7.38,-4 2.06,-1.58 3.81,-3.5 5.2,-5.66 1.42,-2.21 2.54,-4.59 3.24,-7.03 0.69,-2.39 1.07,-4.94 1.07,-7.61 0,-3.89 -0.71,-7.42 -2.04,-10.47 -1.34,-3.06 -3.45,-5.89 -6.24,-8.37 -2.73,-2.44 -6.37,-4.3 -10.82,-5.53 -4.65,-1.31 -10.3,-1.98 -16.87,-1.98l-54.91 0 0 53.87zm300.98 107.18l0 -159.67 -61.04 0 0 -29.28 154.25 0 0 29.28 -61.28 0 0 163.38 -31.93 0 0 -3.71zm329.64 0l0 -77.36 -74.58 -111.59 38.72 0 37.63 57.52 15.73 25.97 17.08 -27.34 37.02 -56.15 37.61 0 -77.28 111.64 0 81.03 -31.93 0 0 -3.71zm216.87 -90.23c0,-15.73 2.15,-29.86 6.4,-42.29 4.29,-12.52 10.77,-23.37 19.39,-32.45 8.62,-9.06 18.55,-15.91 29.7,-20.46 11.1,-4.53 23.45,-6.82 36.95,-6.82 8.79,0 17.27,1.09 25.3,3.2 8.07,2.15 15.72,5.37 22.82,9.58 7.17,4.31 13.55,9.45 18.97,15.38 5.45,5.93 10.1,12.74 13.86,20.35 3.69,7.55 6.54,15.66 8.37,24.21 1.87,8.6 2.81,17.69 2.81,27.13 0,9.6 -0.98,18.84 -2.94,27.56 -1.95,8.7 -4.9,16.93 -8.83,24.56 -3.93,7.7 -8.76,14.55 -14.38,20.42 -5.59,5.85 -12.07,10.82 -19.35,14.81 -7.23,3.95 -14.8,6.96 -22.57,8.93 -7.8,1.97 -15.9,2.98 -24.19,2.98 -8.99,0 -17.6,-1.11 -25.76,-3.29 -8.11,-2.18 -15.78,-5.51 -22.93,-9.91 -7.17,-4.35 -13.5,-9.59 -18.92,-15.59 -5.45,-6.03 -10.06,-12.85 -13.71,-20.44 -3.63,-7.48 -6.4,-15.27 -8.22,-23.26 -1.85,-7.99 -2.78,-16.24 -2.78,-24.59zm32.71 0.4c0,21.33 5.68,38.11 16.97,50.23 5.64,6.03 12.03,10.58 19.06,13.58 7,2.98 14.86,4.5 23.43,4.5 8.74,0 16.7,-1.53 23.79,-4.54 7.06,-3 13.46,-7.59 19.03,-13.69 5.57,-6.08 9.81,-13.52 12.62,-22.2 2.85,-8.82 4.29,-19.01 4.29,-30.56 0,-7.31 -0.63,-14.17 -1.84,-20.44 -1.2,-6.24 -3.06,-12.13 -5.5,-17.52 -2.37,-5.28 -5.36,-10.01 -8.82,-14.09 -3.46,-4.06 -7.53,-7.56 -12.1,-10.45 -4.61,-2.88 -9.55,-5.09 -14.72,-6.54 -5.11,-1.45 -10.62,-2.19 -16.36,-2.19 -8.26,0 -15.91,1.41 -22.87,4.17 -7,2.82 -13.5,7.05 -19.41,12.71 -5.76,5.49 -10.16,12.95 -13.08,22.25 -2.98,9.53 -4.5,21.18 -4.5,34.77zm405.24 -99.12l28.25 0 0 110.75c0,19 -2.23,34.27 -6.63,45.67 -2.26,5.85 -5.47,11.23 -9.49,15.95 -4.04,4.73 -9.04,8.97 -14.8,12.55 -5.85,3.65 -12.62,6.42 -20.17,8.22 -7.48,1.79 -15.84,2.67 -25.05,2.67 -8.85,0 -17.03,-0.8 -24.46,-2.35 -7.4,-1.55 -14.06,-3.94 -19.87,-7.09 -5.89,-3.18 -10.98,-7.13 -15.18,-11.73 -4.21,-4.61 -7.63,-9.98 -10.12,-16.06 -2.46,-5.86 -4.34,-12.91 -5.55,-20.98 -1.2,-7.99 -1.83,-16.96 -1.83,-26.86l0 -110.75 31.93 0 0 110.63c0,8.03 0.37,14.91 1.07,20.46 0.71,5.64 1.78,10.27 3.14,13.75 1.3,3.35 3.13,6.39 5.42,9.02 2.27,2.6 5.07,4.88 8.37,6.75 3.31,1.89 7.06,3.31 11.17,4.27 4.13,0.95 8.74,1.45 13.75,1.45 8.66,0 16.01,-0.99 22.03,-2.9 5.78,-1.84 10.43,-4.58 13.81,-8.22 3.39,-3.6 6,-9.06 7.74,-16.22 1.81,-7.48 2.75,-16.95 2.75,-28.35l0 -110.63 3.71 0z"/>
  </g>
 </g>
</svg>
