<svg width="18" height="18" viewBox="0 0 18 18" fill="none" xmlns="http://www.w3.org/2000/svg">
<path d="M7.9474 10.0486C6.8749 8.97609 6.0664 7.77526 5.52923 6.55701C5.41557 6.29942 5.48248 5.99784 5.6814 5.79892L6.43215 5.04909C7.04723 4.43401 7.04723 3.56409 6.51007 3.02692L5.4339 1.95076C4.71798 1.23484 3.55748 1.23484 2.84156 1.95076L2.2439 2.54842C1.56465 3.22767 1.2814 4.20759 1.46473 5.17926C1.91756 7.57451 3.30906 10.1971 5.55398 12.442C7.7989 14.6869 10.4215 16.0784 12.8167 16.5313C13.7884 16.7146 14.7683 16.4313 15.4476 15.7521L16.0443 15.1553C16.7602 14.4394 16.7602 13.2789 16.0443 12.563L14.9691 11.4878C14.4319 10.9506 13.5611 10.9506 13.0248 11.4878L12.1971 12.3164C11.9981 12.5153 11.6966 12.5823 11.439 12.4686C10.2207 11.9305 9.0199 11.1211 7.9474 10.0486Z" stroke="#A2A2A7" stroke-width="1.3" stroke-linecap="round" stroke-linejoin="round"/>
</svg>
